<?xml version="1.0" encoding="utf-8"?>
<!-- Generator: Adobe Illustrator 23.0.2, SVG Export Plug-In . SVG Version: 6.00 Build 0)  -->
<svg version="1.1" id="Capa_1" xmlns="http://www.w3.org/2000/svg" xmlns:xlink="http://www.w3.org/1999/xlink" x="0px" y="0px"
	 viewBox="0 0 300 30" style="enable-background:new 0 0 300 30;" xml:space="preserve">
<style type="text/css">
	.st0{fill:#C4131B;}
	.st1{opacity:0.8;fill:#C4131B;}
	.st2{fill:#8D3B88;}
	.st3{opacity:0.8;fill:#8D3B88;}
	.st4{fill:#1F934C;}
	.st5{opacity:0.8;fill:#1F934C;}
	.st6{fill:#9DBF3B;}
</style>
<g>
	<path class="st6" d="M9.95,7.98c0.18,0,0.26,0.1,0.26,0.29v2.55c0,0.19-0.08,0.29-0.26,0.29h-5.6v3.03h5.13
		c0.18,0,0.26,0.1,0.26,0.29v2.41c0,0.19-0.08,0.29-0.26,0.29H4.35v2.94h5.6c0.18,0,0.26,0.1,0.26,0.29v2.55
		c0,0.19-0.08,0.29-0.26,0.29H1.61c-0.16,0-0.24-0.1-0.24-0.31V8.29c0-0.21,0.08-0.31,0.24-0.31H9.95z"/>
	<path class="st6" d="M22.16,7.98c0.27,0,0.32,0.14,0.18,0.43l-3.82,6.88l4.17,7.48c0.16,0.29,0.1,0.43-0.18,0.43h-2.79
		c-0.18,0-0.32-0.1-0.43-0.31l-2.51-4.86l-2.51,4.86c-0.13,0.21-0.27,0.31-0.43,0.31h-2.79c-0.27,0-0.34-0.14-0.18-0.43l4.17-7.48
		l-3.81-6.88c-0.15-0.29-0.1-0.43,0.18-0.43h2.79c0.18,0,0.32,0.1,0.43,0.31l2.16,4.26l2.16-4.26c0.11-0.21,0.26-0.31,0.43-0.31
		H22.16z"/>
	<path class="st6" d="M30.58,8.26c0.32,0.25,0.61,0.89,0.85,1.96l2.87,12.67c0.03,0.21-0.03,0.31-0.21,0.31h-2.46
		c-0.11,0-0.18-0.1-0.23-0.31l-0.87-3.93h-4.04l-0.9,3.93c-0.05,0.21-0.11,0.31-0.21,0.31h-2.46c-0.18,0-0.24-0.1-0.21-0.31
		l2.88-12.67c0.24-1.07,0.53-1.71,0.85-1.96C26.76,8,27.46,7.87,28.5,7.87C29.56,7.87,30.26,8,30.58,8.26z M28.23,11.17l-1.08,4.86
		h2.72l-1.09-4.86c-0.06-0.25-0.1-0.31-0.29-0.31C28.31,10.86,28.29,10.92,28.23,11.17z"/>
	<path class="st6" d="M48.49,7.96c0.11,0,0.18,0.12,0.19,0.33l1.22,14.58c0.02,0.21-0.06,0.33-0.24,0.33h-2.5
		c-0.15,0-0.23-0.12-0.24-0.33l-0.69-8.48l-2.59,8.03c-0.08,0.21-0.19,0.31-0.35,0.31h-1.72c-0.18,0-0.29-0.1-0.35-0.31l-2.59-8.03
		l-0.71,8.48c-0.02,0.21-0.1,0.33-0.24,0.33h-2.5c-0.18,0-0.26-0.12-0.24-0.33l1.22-14.58c0.02-0.21,0.1-0.31,0.21-0.31h2.29
		c0.6,0,0.84,0.17,1.03,0.78l2.74,8.69l2.74-8.71c0.21-0.62,0.45-0.78,1.03-0.78H48.49z"/>
	<path class="st6" d="M60.12,7.98c0.18,0,0.26,0.1,0.26,0.29v2.55c0,0.19-0.08,0.29-0.26,0.29h-5.6v3.03h5.13
		c0.18,0,0.26,0.1,0.26,0.29v2.41c0,0.19-0.08,0.29-0.26,0.29h-5.13v2.94h5.6c0.18,0,0.26,0.1,0.26,0.29v2.55
		c0,0.19-0.08,0.29-0.26,0.29h-8.34c-0.16,0-0.24-0.1-0.24-0.31V8.29c0-0.21,0.08-0.31,0.24-0.31H60.12z"/>
	<path class="st6" d="M72.56,7.98c0.16,0,0.24,0.1,0.24,0.31v14.58c0,0.21-0.08,0.33-0.24,0.33h-1.75c-0.4,0-0.71-0.19-0.93-0.56
		l-4.75-8.22v8.46c0,0.21-0.08,0.33-0.24,0.33h-2.5c-0.16,0-0.24-0.12-0.24-0.33V8.29c0-0.21,0.08-0.31,0.24-0.31h1.83
		c0.63,0,0.72,0.14,1.05,0.68l4.56,7.85V8.29c0-0.21,0.08-0.31,0.24-0.31H72.56z"/>
	<path class="st6" d="M86.64,8.99c0.69,0.74,1.03,2.06,1.03,3.99c0,1.89-0.34,3.17-1,3.83c-0.66,0.64-1.88,0.97-3.67,0.97h-1.98
		v5.11c0,0.25-0.05,0.31-0.24,0.31h-2.5c-0.19,0-0.24-0.06-0.24-0.31V8.37c0-0.17,0.08-0.25,0.24-0.27
		c1.58-0.16,3.16-0.23,4.72-0.23C84.74,7.87,85.95,8.24,86.64,8.99z M81.03,11v4.1h1.66c0.77,0,1.29-0.14,1.56-0.39
		c0.27-0.27,0.4-0.82,0.4-1.61c0-1.61-0.44-2.1-1.96-2.1H81.03z"/>
	<path class="st6" d="M94.61,8.26c0.32,0.25,0.61,0.89,0.85,1.96l2.87,12.67c0.03,0.21-0.03,0.31-0.21,0.31h-2.46
		c-0.11,0-0.18-0.1-0.23-0.31l-0.87-3.93h-4.04l-0.9,3.93c-0.05,0.21-0.11,0.31-0.21,0.31h-2.46c-0.18,0-0.24-0.1-0.21-0.31
		l2.88-12.67c0.24-1.07,0.53-1.71,0.85-1.96c0.32-0.25,1.01-0.39,2.06-0.39C93.59,7.87,94.29,8,94.61,8.26z M92.26,11.17l-1.08,4.86
		h2.72l-1.09-4.86c-0.06-0.25-0.1-0.31-0.29-0.31C92.34,10.86,92.32,10.92,92.26,11.17z"/>
	<path class="st6" d="M108.05,8.99c0.69,0.74,1.03,2.06,1.03,3.99c0,2.88-0.64,4.1-2.38,4.57l2.74,5.27
		c0.13,0.21,0.05,0.39-0.19,0.39h-2.51c-0.34,0-0.47-0.12-0.64-0.43l-2.62-5h-1.03v5.11c0,0.25-0.05,0.31-0.24,0.31h-2.5
		c-0.19,0-0.24-0.06-0.24-0.31V8.37c0-0.17,0.08-0.25,0.24-0.27c1.58-0.16,3.16-0.23,4.72-0.23C106.15,7.87,107.35,8.24,108.05,8.99
		z M102.43,11v4.1h1.66c0.77,0,1.29-0.14,1.56-0.39c0.27-0.27,0.4-0.82,0.4-1.61c0-1.61-0.44-2.1-1.96-2.1H102.43z"/>
	<path class="st6" d="M117.72,8.26c0.32,0.25,0.61,0.89,0.85,1.96l2.87,12.67c0.03,0.21-0.03,0.31-0.21,0.31h-2.46
		c-0.11,0-0.18-0.1-0.23-0.31l-0.87-3.93h-4.04l-0.9,3.93c-0.05,0.21-0.11,0.31-0.21,0.31h-2.46c-0.18,0-0.24-0.1-0.21-0.31
		l2.88-12.67c0.24-1.07,0.53-1.71,0.85-1.96c0.32-0.25,1.01-0.39,2.06-0.39C116.7,7.87,117.39,8,117.72,8.26z M115.37,11.17
		l-1.08,4.86h2.72l-1.09-4.86c-0.06-0.25-0.1-0.31-0.29-0.31C115.45,10.86,115.43,10.92,115.37,11.17z"/>
	<path class="st6" d="M127.63,7.98c0.16,0,0.24,0.1,0.24,0.31v11.78h5.01c0.16,0,0.24,0.1,0.24,0.29v2.55
		c0,0.19-0.08,0.29-0.24,0.29h-7.74c-0.16,0-0.24-0.1-0.24-0.31V8.29c0-0.21,0.08-0.31,0.24-0.31H127.63z"/>
	<path class="st6" d="M137.17,7.98c0.16,0,0.24,0.1,0.24,0.31v14.58c0,0.21-0.08,0.33-0.24,0.33h-2.5c-0.16,0-0.24-0.12-0.24-0.33
		V8.29c0-0.21,0.08-0.31,0.24-0.31H137.17z"/>
	<path class="st6" d="M147.71,8.22c0.31,0.1,0.42,0.23,0.42,0.6v1.89c0,0.19-0.08,0.29-0.24,0.29h-3.43c-0.95,0-1.56,0.31-1.87,0.93
		c-0.29,0.62-0.43,1.83-0.43,3.64c0,1.81,0.14,3.01,0.43,3.65c0.31,0.64,0.92,0.95,1.87,0.95h3.43c0.16,0,0.24,0.1,0.24,0.29v1.89
		c0,0.33-0.15,0.52-0.42,0.6c-0.79,0.23-1.88,0.35-3.25,0.35c-2.14,0-3.4-0.41-4.23-1.63c-0.82-1.24-1.08-3.01-1.08-6.1
		c0-3.01,0.35-5.04,1.08-6.1c0.72-1.07,2.14-1.59,4.23-1.59C145.76,7.87,146.86,7.98,147.71,8.22z"/>
	<path class="st6" d="M158.28,7.98c0.18,0,0.26,0.1,0.26,0.29v2.55c0,0.19-0.08,0.29-0.26,0.29h-5.6v3.03h5.13
		c0.18,0,0.26,0.1,0.26,0.29v2.41c0,0.19-0.08,0.29-0.26,0.29h-5.13v2.94h5.6c0.18,0,0.26,0.1,0.26,0.29v2.55
		c0,0.19-0.08,0.29-0.26,0.29h-8.34c-0.16,0-0.24-0.1-0.24-0.31V8.29c0-0.21,0.08-0.31,0.24-0.31H158.28z"/>
	<path class="st6" d="M170.72,7.98c0.16,0,0.24,0.1,0.24,0.31v14.58c0,0.21-0.08,0.33-0.24,0.33h-1.75c-0.4,0-0.71-0.19-0.93-0.56
		l-4.75-8.22v8.46c0,0.21-0.08,0.33-0.24,0.33h-2.5c-0.16,0-0.24-0.12-0.24-0.33V8.29c0-0.21,0.08-0.31,0.24-0.31h1.83
		c0.63,0,0.72,0.14,1.05,0.68l4.56,7.85V8.29c0-0.21,0.08-0.31,0.24-0.31H170.72z"/>
	<path class="st6" d="M181.26,8.22c0.31,0.1,0.42,0.23,0.42,0.6v1.89c0,0.19-0.08,0.29-0.24,0.29h-3.43c-0.95,0-1.56,0.31-1.87,0.93
		c-0.29,0.62-0.43,1.83-0.43,3.64c0,1.81,0.14,3.01,0.43,3.65c0.31,0.64,0.92,0.95,1.87,0.95h3.43c0.16,0,0.24,0.1,0.24,0.29v1.89
		c0,0.33-0.15,0.52-0.42,0.6c-0.79,0.23-1.88,0.35-3.25,0.35c-2.14,0-3.4-0.41-4.23-1.63c-0.82-1.24-1.08-3.01-1.08-6.1
		c0-3.01,0.35-5.04,1.08-6.1c0.72-1.07,2.14-1.59,4.23-1.59C179.31,7.87,180.41,7.98,181.26,8.22z"/>
	<path class="st6" d="M185.99,7.98c0.16,0,0.24,0.1,0.24,0.31v14.58c0,0.21-0.08,0.33-0.24,0.33h-2.5c-0.16,0-0.24-0.12-0.24-0.33
		V8.29c0-0.21,0.08-0.31,0.24-0.31H185.99z"/>
	<path class="st6" d="M195.21,8.26c0.32,0.25,0.61,0.89,0.85,1.96l2.87,12.67c0.03,0.21-0.03,0.31-0.21,0.31h-2.46
		c-0.11,0-0.18-0.1-0.23-0.31l-0.87-3.93h-4.04l-0.9,3.93c-0.05,0.21-0.11,0.31-0.21,0.31h-2.46c-0.18,0-0.24-0.1-0.21-0.31
		l2.88-12.67c0.24-1.07,0.53-1.71,0.85-1.96c0.32-0.25,1.01-0.39,2.06-0.39C194.2,7.87,194.89,8,195.21,8.26z M192.86,11.17
		l-1.08,4.86h2.72l-1.09-4.86c-0.06-0.25-0.1-0.31-0.29-0.31C192.94,10.86,192.93,10.92,192.86,11.17z"/>
	<path class="st6" d="M211.52,9.69c0.82,1.21,1.22,3.19,1.22,5.93c0,2.72-0.4,4.69-1.22,5.89c-0.82,1.19-2.19,1.79-4.11,1.79
		c-1.61,0-3.2-0.08-4.78-0.23c-0.16-0.02-0.24-0.1-0.24-0.23V8.37c0-0.17,0.08-0.25,0.24-0.27c1.58-0.16,3.17-0.23,4.78-0.23
		C209.33,7.87,210.69,8.47,211.52,9.69z M205.37,11v9.18h2.04c1.69,0,2.32-1.3,2.32-4.55c0-3.27-0.64-4.63-2.37-4.63H205.37z"/>
	<path class="st6" d="M223.02,7.98c0.18,0,0.26,0.1,0.26,0.29v2.55c0,0.19-0.08,0.29-0.26,0.29h-5.6v3.03h5.13
		c0.18,0,0.26,0.1,0.26,0.29v2.41c0,0.19-0.08,0.29-0.26,0.29h-5.13v2.94h5.6c0.18,0,0.26,0.1,0.26,0.29v2.55
		c0,0.19-0.08,0.29-0.26,0.29h-8.34c-0.16,0-0.24-0.1-0.24-0.31V8.29c0-0.21,0.08-0.31,0.24-0.31H223.02z"/>
	<path class="st6" d="M241.24,7.96c0.11,0,0.18,0.12,0.19,0.33l1.22,14.58c0.02,0.21-0.06,0.33-0.24,0.33h-2.5
		c-0.15,0-0.23-0.12-0.24-0.33l-0.69-8.48l-2.59,8.03c-0.08,0.21-0.19,0.31-0.35,0.31h-1.72c-0.18,0-0.29-0.1-0.35-0.31l-2.59-8.03
		l-0.71,8.48c-0.02,0.21-0.1,0.33-0.24,0.33h-2.5c-0.18,0-0.26-0.12-0.24-0.33l1.22-14.58c0.02-0.21,0.1-0.31,0.21-0.31h2.29
		c0.6,0,0.84,0.17,1.03,0.78l2.74,8.69l2.74-8.71c0.21-0.62,0.45-0.78,1.03-0.78H241.24z"/>
	<path class="st6" d="M251.15,8.26c0.32,0.25,0.61,0.89,0.85,1.96l2.87,12.67c0.03,0.21-0.03,0.31-0.21,0.31h-2.46
		c-0.11,0-0.18-0.1-0.23-0.31l-0.87-3.93h-4.04l-0.9,3.93c-0.05,0.21-0.11,0.31-0.21,0.31h-2.46c-0.18,0-0.24-0.1-0.21-0.31
		l2.88-12.67c0.24-1.07,0.53-1.71,0.85-1.96c0.32-0.25,1.01-0.39,2.06-0.39C250.13,7.87,250.83,8,251.15,8.26z M248.8,11.17
		l-1.08,4.86h2.72l-1.09-4.86c-0.06-0.25-0.1-0.31-0.29-0.31C248.88,10.86,248.86,10.92,248.8,11.17z"/>
	<path class="st6" d="M266.4,7.98c0.16,0,0.24,0.1,0.24,0.31v14.58c0,0.21-0.08,0.33-0.24,0.33h-1.75c-0.4,0-0.71-0.19-0.93-0.56
		l-4.75-8.22v8.46c0,0.21-0.08,0.33-0.24,0.33h-2.5c-0.16,0-0.24-0.12-0.24-0.33V8.29c0-0.21,0.08-0.31,0.24-0.31h1.83
		c0.63,0,0.72,0.14,1.05,0.68l4.56,7.85V8.29c0-0.21,0.08-0.31,0.24-0.31H266.4z"/>
	<path class="st6" d="M277.35,7.98c0.18,0,0.26,0.1,0.26,0.29v2.55c0,0.19-0.08,0.29-0.26,0.29h-5.6v3.03h5.13
		c0.18,0,0.26,0.1,0.26,0.29v2.41c0,0.19-0.08,0.29-0.26,0.29h-5.13v2.94h5.6c0.18,0,0.26,0.1,0.26,0.29v2.55
		c0,0.19-0.08,0.29-0.26,0.29h-8.34c-0.16,0-0.24-0.1-0.24-0.31V8.29c0-0.21,0.08-0.31,0.24-0.31H277.35z"/>
	<path class="st6" d="M286.73,7.98c0.16,0,0.24,0.1,0.24,0.29v7.6c0,2.88-0.37,4.84-1.11,5.87s-2.16,1.56-4.25,1.56
		c-0.98,0-1.87-0.12-2.66-0.35c-0.27-0.08-0.42-0.25-0.42-0.54v-1.94c0-0.19,0.08-0.29,0.24-0.29h2.83c0.97,0,1.61-0.29,1.92-0.85
		c0.31-0.58,0.47-1.73,0.47-3.44v-4.76h-2.96c-0.18,0-0.26-0.1-0.26-0.29V8.28c0-0.19,0.08-0.29,0.26-0.29H286.73z"/>
	<path class="st6" d="M298.2,9.5c0.76,1.07,1.13,3.11,1.13,6.1c0,3.05-0.27,4.84-1.13,6.07c-0.84,1.22-2.11,1.63-4.25,1.63
		c-2.08,0-3.49-0.54-4.25-1.61c-0.74-1.07-1.11-3.11-1.11-6.08c0-3.05,0.27-4.86,1.11-6.08c0.85-1.24,2.11-1.65,4.25-1.65
		C296.04,7.87,297.46,8.41,298.2,9.5z M292.07,11.97c-0.31,0.64-0.47,1.85-0.47,3.64c0,1.77,0.16,2.97,0.47,3.62
		c0.31,0.64,0.93,0.95,1.88,0.95c0.95,0,1.58-0.31,1.88-0.95c0.31-0.64,0.47-1.85,0.47-3.62c0-1.79-0.16-2.99-0.47-3.64
		c-0.31-0.64-0.93-0.97-1.88-0.97C293,11,292.37,11.33,292.07,11.97z"/>
</g>
</svg>
